<svg width="3217" height="1721" viewBox="0 0 3217 1721" fill="none" xmlns="http://www.w3.org/2000/svg">
<path d="M1607.84 861.681L0.504639 858.471L1607.3 1717.91L1607.84 861.681Z" fill="#EAE1B3" stroke="#A29E5E" stroke-width="2.1399"/>
<path d="M1607.84 861.682L0.504639 858.472L1607.3 1610.91L1607.84 861.682Z" fill="#EAE1B3" stroke="#A29E5E" stroke-width="2.1399"/>
<path d="M1607.84 861.681L0.504639 858.471L1607.3 1503.92L1607.84 861.681Z" fill="#EAE1B3" stroke="#A29E5E" stroke-width="2.1399"/>
<path d="M1607.84 861.681L0.504639 858.471L1607.3 1396.92L1607.84 861.681Z" fill="#EAE1B3" stroke="#A29E5E" stroke-width="2.1399"/>
<path d="M1607.84 861.682L0.504639 858.472L1607.3 1289.93L1607.84 861.682Z" fill="#EAE1B3" stroke="#A29E5E" stroke-width="2.1399"/>
<path d="M1607.84 861.68L0.504639 858.471L1607.3 1182.93L1607.84 861.68Z" fill="#EAE1B3" stroke="#A29E5E" stroke-width="2.1399"/>
<path d="M1607.84 861.68L0.504639 858.47L1607.3 1075.94L1607.84 861.68Z" fill="#EAE1B3" stroke="#A29E5E" stroke-width="2.1399"/>
<path d="M1609.98 854.995L2.64465 851.785L1607.3 968.944L1609.98 854.995Z" fill="#EAE1B3" stroke="#A29E5E" stroke-width="2.1399"/>
<path d="M1609.17 858.547L3216.5 861.757L1609.71 2.32017L1609.17 858.547Z" fill="#DFD18B" stroke="#A29E5E" stroke-width="2.1399"/>
<path d="M1609.17 858.547L3216.5 861.757L1609.71 109.315L1609.17 858.547Z" fill="#DFD18B" stroke="#A29E5E" stroke-width="2.1399"/>
<path d="M1609.17 858.547L3216.5 861.757L1609.71 216.31L1609.17 858.547Z" fill="#DFD18B" stroke="#A29E5E" stroke-width="2.1399"/>
<path d="M1609.17 858.548L3216.5 861.758L1609.71 323.306L1609.17 858.548Z" fill="#DFD18B" stroke="#A29E5E" stroke-width="2.1399"/>
<path d="M1609.17 858.548L3216.5 861.758L1609.71 430.301L1609.17 858.548Z" fill="#DFD18B" stroke="#A29E5E" stroke-width="2.1399"/>
<path d="M1609.17 858.548L3216.5 861.758L1609.71 537.296L1609.17 858.548Z" fill="#DFD18B" stroke="#A29E5E" stroke-width="2.1399"/>
<path d="M1609.17 858.549L3216.5 861.759L1609.71 644.292L1609.17 858.549Z" fill="#DFD18B" stroke="#A29E5E" stroke-width="2.1399"/>
<path d="M1609.17 858.545L3216.5 861.755L1609.71 751.283L1609.17 858.545Z" fill="#DFD18B"/>
<path d="M1609.17 858.545L1609.71 751.283L3216.5 861.755M3216.5 861.755L1609.17 858.545L1609.71 751.283L3216.5 861.755Z" stroke="#A29E5E" stroke-width="2.1399"/>
<path d="M1608.64 858.012L1.30725 861.222L1608.1 1.78516L1608.64 858.012Z" fill="#EAE1B3" stroke="#A29E5E" stroke-width="2.1399"/>
<path d="M1608.64 858.012L1.30725 861.222L1608.1 108.78L1608.64 858.012Z" fill="#EAE1B3" stroke="#A29E5E" stroke-width="2.1399"/>
<path d="M1608.64 858.012L1.30725 861.222L1608.1 215.775L1608.64 858.012Z" fill="#EAE1B3" stroke="#A29E5E" stroke-width="2.1399"/>
<path d="M1608.64 858.013L1.30725 861.222L1608.1 322.771L1608.64 858.013Z" fill="#EAE1B3" stroke="#A29E5E" stroke-width="2.1399"/>
<path d="M1608.64 858.013L1.30725 861.223L1608.1 429.766L1608.64 858.013Z" fill="#EAE1B3" stroke="#A29E5E" stroke-width="2.1399"/>
<path d="M1608.64 858.013L1.30725 861.223L1608.1 536.761L1608.64 858.013Z" fill="#EAE1B3" stroke="#A29E5E" stroke-width="2.1399"/>
<path d="M1608.64 858.013L1.30725 861.223L1608.1 643.756L1608.64 858.013Z" fill="#EAE1B3" stroke="#A29E5E" stroke-width="2.1399"/>
<path d="M1608.64 858.012L1.30725 861.222L1608.1 750.75L1608.64 858.012Z" fill="#EAE1B3"/>
<path d="M1608.64 858.012L1608.1 750.75L1.30725 861.222M1.30725 861.222L1608.64 858.012L1608.1 750.75L1.30725 861.222Z" stroke="#A29E5E" stroke-width="2.1399"/>
<path d="M1609.01 862.039L3216.34 858.829L1609.54 1718.27L1609.01 862.039Z" fill="#DFD18B" stroke="#A29E5E" stroke-width="2.1399"/>
<path d="M1609.01 862.039L3216.34 858.83L1609.54 1611.27L1609.01 862.039Z" fill="#DFD18B" stroke="#A29E5E" stroke-width="2.1399"/>
<path d="M1609.01 862.038L3216.34 858.829L1609.54 1504.28L1609.01 862.038Z" fill="#DFD18B" stroke="#A29E5E" stroke-width="2.1399"/>
<path d="M1609.01 862.039L3216.34 858.829L1609.54 1397.28L1609.01 862.039Z" fill="#DFD18B" stroke="#A29E5E" stroke-width="2.1399"/>
<path d="M1609.01 862.039L3216.34 858.829L1609.54 1290.29L1609.01 862.039Z" fill="#DFD18B" stroke="#A29E5E" stroke-width="2.1399"/>
<path d="M1609.01 862.039L3216.34 858.829L1609.54 1183.29L1609.01 862.039Z" fill="#DFD18B" stroke="#A29E5E" stroke-width="2.1399"/>
<path d="M1609.01 862.038L3216.34 858.829L1609.54 1076.3L1609.01 862.038Z" fill="#DFD18B" stroke="#A29E5E" stroke-width="2.1399"/>
<path d="M1609.01 862.038L3216.34 858.829L1609.54 969.301L1609.01 862.038Z" fill="#DFD18B"/>
<path d="M1609.01 862.038L1609.54 969.301L3216.34 858.829M3216.34 858.829L1609.01 862.038L1609.54 969.301L3216.34 858.829Z" stroke="#A29E5E" stroke-width="2.1399"/>
</svg>
